<?xml version="1.0" standalone="no"?>
<!DOCTYPE svg PUBLIC "-//W3C//DTD SVG 20010904//EN"
 "http://www.w3.org/TR/2001/REC-SVG-20010904/DTD/svg10.dtd">
<svg version="1.0" xmlns="http://www.w3.org/2000/svg"
 width="939.000000pt" height="335.000000pt" viewBox="0 0 939.000000 335.000000"
 preserveAspectRatio="xMidYMid meet">

<g transform="translate(0.000000,335.000000) scale(0.100000,-0.100000)"
fill="#000000" stroke="none">
<path d="M1814 3013 c-61 -49 -164 -130 -228 -180 -64 -51 -121 -93 -126 -93
-6 0 -10 -7 -10 -15 0 -10 23 4 64 37 35 29 96 79 137 111 100 77 171 134 227
180 26 21 54 36 63 34 8 -2 98 -69 198 -148 167 -131 724 -569 879 -691 34
-28 62 -47 62 -45 0 3 -93 79 -206 169 -114 90 -275 217 -358 284 -83 66 -178
140 -211 165 -62 46 -159 121 -282 221 -39 32 -78 58 -85 58 -8 0 -64 -39
-124 -87z"/>
<path d="M1141 2963 c2 -24 2 -25 6 -5 4 22 7 22 153 22 l149 0 4 -62 3 -63 2
68 2 67 -160 0 -160 0 1 -27z"/>
<path d="M1143 2870 c0 -30 2 -43 4 -27 2 15 2 39 0 55 -2 15 -4 2 -4 -28z"/>
<path d="M1142 2765 c0 -16 2 -22 5 -12 2 9 2 23 0 30 -3 6 -5 -1 -5 -18z"/>
<path d="M6068 2703 c23 -2 59 -2 80 0 20 2 1 4 -43 4 -44 0 -61 -2 -37 -4z"/>
<path d="M5924 2671 c-71 -33 -124 -77 -165 -138 -36 -52 -69 -144 -68 -187 1
-25 3 -23 9 14 30 165 126 276 285 326 22 7 31 13 20 13 -11 1 -47 -12 -81
-28z"/>
<path d="M6241 2682 c70 -24 138 -70 183 -125 41 -51 63 -98 82 -182 13 -54
14 -56 9 -14 -15 156 -153 312 -295 334 -24 4 -17 0 21 -13z"/>
<path d="M3417 2683 c-4 -3 -7 -190 -7 -415 l0 -409 108 3 107 3 3 131 3 132
117 4 c132 4 185 22 238 80 l29 33 -30 -26 c-66 -58 -111 -72 -242 -77 l-123
-4 0 -134 0 -134 -100 0 -100 0 0 405 0 405 198 3 197 2 -196 3 c-108 1 -199
-1 -202 -5z"/>
<path d="M4367 2683 c-3 -5 36 -7 86 -5 79 3 93 1 105 -15 14 -17 14 -17 8 0
-3 10 -6 21 -6 23 0 7 -189 4 -193 -3z"/>
<path d="M4950 2275 l0 -415 208 0 c231 0 279 8 350 59 22 17 53 52 69 78 25
43 28 58 28 133 0 68 -5 93 -22 126 -21 39 -98 112 -109 102 -2 -3 14 -18 37
-33 63 -44 84 -93 84 -195 0 -77 -3 -89 -29 -130 -37 -59 -74 -87 -141 -111
-47 -16 -83 -19 -260 -19 l-205 0 0 405 0 405 275 0 275 0 0 -80 0 -79 -145
-4 -145 -3 147 1 148 0 3 88 3 87 -286 0 -285 0 0 -415z"/>
<path d="M6732 2683 l87 -4 4 -142 3 -142 -1 145 0 145 -90 1 -90 0 87 -3z"/>
<path d="M7102 2528 l2 -163 3 158 4 157 94 0 95 0 0 -405 0 -405 -95 0 -95 0
0 150 c0 139 -6 171 -26 138 -4 -7 -3 -8 4 -4 9 5 12 -32 12 -143 l0 -151 105
0 105 0 -2 413 -3 412 -102 3 -103 3 2 -163z"/>
<path d="M7477 2683 c-4 -3 -7 -190 -7 -415 l0 -408 103 0 102 0 115 192 c125
209 171 290 168 294 -2 1 -67 -105 -146 -237 l-143 -239 -94 0 -95 0 0 405 0
405 90 0 90 0 2 -262 3 -263 19 35 c10 19 58 98 106 175 48 77 111 179 141
227 l54 88 88 0 87 0 0 -405 0 -405 -90 0 -90 0 -1 268 c0 147 -3 259 -7 250
-4 -9 -6 -132 -4 -273 l3 -255 99 0 100 0 0 415 0 415 -94 0 -94 0 -49 -77
c-27 -43 -96 -154 -154 -247 l-104 -168 -3 246 -2 246 -94 0 c-51 0 -96 -3
-99 -7z"/>
<path d="M8327 2683 c-4 -3 -7 -190 -7 -415 l0 -408 113 0 c112 0 114 0 125
25 17 37 14 45 -4 13 -15 -28 -15 -28 -119 -28 l-105 0 0 405 0 405 90 0 90 0
2 -247 c3 -208 5 -243 16 -219 6 15 8 24 2 21 -7 -4 -10 72 -10 224 l0 231
-93 0 c-52 0 -97 -3 -100 -7z"/>
<path d="M8741 2668 c-5 -13 -50 -107 -100 -210 -49 -104 -88 -188 -85 -188 3
0 50 92 104 205 l99 205 116 0 115 0 0 -405 0 -405 -90 0 -90 0 -1 278 c0 152
-3 268 -7 257 -4 -11 -6 -138 -4 -282 l3 -263 99 0 100 0 0 415 0 415 -125 0
c-121 0 -126 -1 -134 -22z"/>
<path d="M3838 2673 c6 -2 18 -2 25 0 6 3 1 5 -13 5 -14 0 -19 -2 -12 -5z"/>
<path d="M6624 2520 c0 -91 2 -128 3 -82 2 45 2 119 0 165 -1 45 -3 8 -3 -83z"/>
<path d="M3899 2659 c43 -17 101 -71 123 -112 11 -23 27 -73 34 -112 l14 -70
-5 59 c-6 62 -33 136 -63 170 -28 31 -94 76 -111 75 -10 0 -7 -4 8 -10z"/>
<path d="M4327 2598 c-15 -34 -25 -63 -23 -65 2 -2 15 24 30 58 15 34 25 63
23 65 -2 2 -16 -24 -30 -58z"/>
<path d="M4571 2638 c-1 -12 31 -89 35 -85 3 2 -4 24 -15 48 -11 24 -20 41
-20 37z"/>
<path d="M4611 2538 c-1 -12 31 -89 35 -85 3 2 -4 24 -15 48 -11 24 -20 41
-20 37z"/>
<path d="M6020 2519 c-14 -5 -42 -27 -63 -47 -46 -45 -68 -111 -66 -201 l2
-66 7 85 c13 157 78 230 205 230 130 0 205 -88 205 -239 0 -157 -61 -236 -194
-251 -60 -7 -60 -7 -13 -9 94 -2 176 56 202 143 18 58 18 178 2 221 -39 99
-91 138 -192 142 -38 2 -81 -2 -95 -8z"/>
<path d="M3620 2404 l0 -116 84 3 c86 4 133 23 144 60 3 8 -5 4 -18 -9 -31
-33 -62 -42 -136 -42 l-65 0 3 110 c2 61 0 110 -4 110 -5 0 -8 -52 -8 -116z"/>
<path d="M3723 2511 c70 -5 81 -9 103 -34 16 -19 24 -42 25 -70 1 -26 3 -33 6
-18 3 13 2 39 -2 58 -9 52 -52 73 -140 71 l-70 -1 78 -6z"/>
<path d="M4286 2505 c-9 -26 -7 -32 5 -12 6 10 9 21 6 23 -2 3 -7 -2 -11 -11z"/>
<path d="M5151 2448 c0 -43 2 -78 7 -78 4 0 6 24 4 52 -5 95 -9 104 -11 26z"/>
<path d="M1075 2419 c-33 -28 -106 -90 -162 -137 -57 -48 -103 -90 -103 -95 0
-5 33 20 73 55 39 36 115 100 167 143 52 43 97 79 99 81 2 2 0 4 -5 4 -5 -1
-36 -24 -69 -51z"/>
<path d="M4265 2448 c-4 -13 -32 -81 -62 -152 -29 -71 -52 -131 -50 -133 3 -2
16 24 30 59 14 35 42 103 62 151 20 49 34 91 32 94 -3 2 -8 -6 -12 -19z"/>
<path d="M1680 2345 l0 -105 115 0 115 0 0 105 0 105 -115 0 -115 0 0 -105z
m220 0 l0 -95 -105 0 -105 0 0 95 0 95 105 0 105 0 0 -95z"/>
<path d="M2088 2443 l112 -4 0 -94 0 -94 -102 -4 -103 -3 108 -2 107 -2 0 105
0 105 -117 -2 -118 -2 113 -3z"/>
<path d="M4412 2333 c-23 -64 -41 -118 -39 -120 6 -5 89 215 85 226 -1 5 -22
-43 -46 -106z"/>
<path d="M4652 2432 c2 -4 16 -42 32 -85 16 -43 31 -76 33 -73 5 5 -56 166
-64 166 -2 0 -3 -4 -1 -8z"/>
<path d="M4470 2394 c0 -6 17 -54 39 -107 37 -94 38 -96 17 -100 -16 -3 -15
-5 7 -6 15 0 27 0 27 2 -1 10 -89 220 -90 211z"/>
<path d="M6831 2379 c-1 -8 13 -28 30 -45 28 -27 36 -29 108 -29 76 0 131 19
131 46 0 5 -9 1 -21 -9 -59 -56 -212 -36 -239 31 -5 14 -9 16 -9 6z"/>
<path d="M5331 2376 c2 -2 33 -6 69 -9 38 -3 57 -1 45 3 -19 8 -123 14 -114 6z"/>
<path d="M4051 2345 c-1 -12 -10 -38 -20 -58 -12 -24 -14 -34 -6 -27 17 14 38
76 32 93 -3 6 -6 3 -6 -8z"/>
<path d="M6631 2332 c-4 -90 130 -214 229 -211 l35 2 -40 7 c-115 21 -181 78
-211 185 -8 27 -12 33 -13 17z"/>
<path d="M8760 2315 c-5 -14 -17 -39 -25 -55 -9 -17 -13 -30 -11 -30 6 0 32
48 46 85 5 14 7 25 5 25 -3 0 -10 -11 -15 -25z"/>
<path d="M6523 2265 c0 -27 2 -38 4 -22 2 15 2 37 0 50 -2 12 -4 0 -4 -28z"/>
<path d="M5682 2275 c0 -16 2 -22 5 -12 2 9 2 23 0 30 -3 6 -5 -1 -5 -18z"/>
<path d="M4721 2255 c0 -5 6 -21 14 -35 8 -14 14 -20 14 -15 0 6 -6 21 -14 35
-8 14 -14 21 -14 15z"/>
<path d="M5695 2191 c10 -122 102 -247 223 -304 60 -28 78 -32 167 -33 l100
-2 -101 7 c-86 6 -112 12 -167 39 -115 57 -191 162 -218 302 l-8 45 4 -54z"/>
<path d="M5150 2130 c0 -55 3 -100 8 -100 4 0 6 43 4 95 l-3 94 88 4 88 3 -92
2 -93 2 0 -100z"/>
<path d="M5369 2194 c24 -20 31 -34 31 -61 0 -43 -45 -92 -87 -94 -18 -1 -22
-3 -10 -6 48 -12 107 45 107 104 0 28 -40 83 -61 83 -6 0 3 -12 20 -26z"/>
<path d="M8680 2152 c-77 -154 -109 -222 -105 -222 7 0 147 281 143 286 -2 2
-19 -27 -38 -64z"/>
<path d="M6512 2190 c0 -14 2 -19 5 -12 2 6 2 18 0 25 -3 6 -5 1 -5 -13z"/>
<path d="M4360 2189 c0 -5 9 -9 20 -9 11 0 20 2 20 4 0 2 -9 6 -20 9 -11 3
-20 1 -20 -4z"/>
<path d="M5901 2190 c0 -8 8 -34 18 -57 20 -43 90 -103 120 -103 9 1 3 7 -14
14 -42 19 -92 74 -109 121 -8 22 -15 33 -15 25z"/>
<path d="M4438 2183 c12 -2 32 -2 45 0 12 2 2 4 -23 4 -25 0 -35 -2 -22 -4z"/>
<path d="M4754 2180 c9 -32 39 -101 43 -97 2 3 -8 29 -22 58 -14 30 -23 47
-21 39z"/>
<path d="M807 2158 c2 -5 67 -8 144 -8 l139 0 0 -365 0 -365 128 2 127 2 -122
3 -123 4 0 364 0 364 -149 3 c-82 2 -147 0 -144 -4z"/>
<path d="M1680 2045 l0 -115 115 0 115 0 0 115 0 115 -115 0 -115 0 0 -115z
m220 0 l0 -105 -105 0 -105 0 0 105 0 105 105 0 105 0 0 -105z"/>
<path d="M2088 2153 l112 -4 0 -105 0 -105 -110 3 c-61 2 -110 0 -110 -4 0 -5
52 -8 115 -8 l115 0 0 115 0 115 -117 -2 -118 -2 113 -3z"/>
<path d="M2800 1842 l0 -319 -142 -139 c-249 -242 -246 -240 -271 -224 -20 12
-21 12 -8 -3 7 -10 20 -17 27 -17 8 0 102 86 209 191 l195 192 0 313 0 313
153 4 152 3 -157 2 -158 2 0 -318z"/>
<path d="M6501 2150 c-1 -8 -14 -42 -30 -75 -26 -55 -89 -125 -147 -163 -10
-7 1 -2 25 10 24 13 59 41 77 64 39 47 88 149 81 167 -4 8 -6 7 -6 -3z"/>
<path d="M4132 2125 c-17 -37 -14 -45 4 -12 9 16 14 31 11 33 -2 2 -9 -7 -15
-21z"/>
<path d="M7047 2144 c-3 -4 -32 -10 -64 -14 -56 -7 -56 -7 -13 -8 38 -1 126
25 94 27 -6 1 -13 -2 -17 -5z"/>
<path d="M1981 2114 c0 -11 3 -14 6 -6 3 7 2 16 -1 19 -3 4 -6 -2 -5 -13z"/>
<path d="M1981 2074 c0 -11 3 -14 6 -6 3 7 2 16 -1 19 -3 4 -6 -2 -5 -13z"/>
<path d="M4091 2029 c-12 -29 -20 -54 -18 -56 2 -2 14 20 26 48 12 29 20 54
18 56 -2 2 -14 -20 -26 -48z"/>
<path d="M4806 2050 c4 -14 14 -41 24 -60 9 -19 23 -52 30 -73 6 -21 14 -36
17 -34 5 5 -50 148 -68 176 -8 12 -8 10 -3 -9z"/>
<path d="M1983 2005 c0 -27 2 -38 4 -22 2 15 2 37 0 50 -2 12 -4 0 -4 -28z"/>
<path d="M4289 1984 c-11 -26 -18 -49 -15 -51 2 -2 12 16 21 42 l18 46 145 -3
146 -3 24 -63 c13 -35 26 -61 28 -59 2 2 -8 33 -22 70 l-26 67 -149 0 -150 0
-20 -46z"/>
<path d="M4052 1935 c-17 -37 -14 -45 4 -12 9 16 14 31 11 33 -2 2 -9 -7 -15
-21z"/>
<path d="M4254 1896 c-6 -26 -6 -26 -109 -26 -61 0 -105 4 -108 10 -3 6 -4 5
-3 -2 2 -9 33 -14 109 -16 l107 -3 10 27 c6 15 8 29 6 32 -3 2 -8 -7 -12 -22z"/>
<path d="M6235 1879 c-27 -10 -41 -18 -30 -18 11 0 38 8 60 18 50 24 36 24
-30 0z"/>
<path d="M4660 1868 c0 -5 51 -7 113 -6 115 1 101 5 -36 10 -42 2 -77 0 -77
-4z"/>
<path d="M4738 1613 c18 -2 45 -2 60 0 15 2 0 4 -33 4 -33 0 -45 -2 -27 -4z"/>
<path d="M4609 1595 c-52 -19 -112 -58 -153 -101 -44 -45 -95 -145 -101 -199
-5 -34 -3 -31 10 15 42 146 161 263 297 289 34 7 37 9 13 9 -16 0 -46 -5 -66
-13z"/>
<path d="M4870 1600 c150 -32 278 -160 310 -310 l9 -45 -3 44 c-13 142 -176
304 -319 317 l-42 3 45 -9z"/>
<path d="M3604 1587 c-3 -8 -3 -47 -1 -88 l3 -74 2 83 2 82 285 0 285 0 0
-324 0 -324 55 -4 c30 -1 55 0 55 5 0 4 -22 7 -50 7 l-50 0 0 325 0 325 -290
0 c-234 0 -292 -3 -296 -13z"/>
<path d="M5300 1185 l0 -416 98 3 97 3 3 238 c1 137 6 236 11 232 5 -3 4 9 -2
26 -10 25 -13 -18 -15 -230 l-2 -261 -90 0 -90 0 0 405 0 405 108 0 108 0 59
-121 c33 -66 63 -123 67 -125 4 -2 -21 54 -55 126 l-62 130 -117 0 -118 0 0
-415z"/>
<path d="M5839 1414 c-49 -103 -88 -189 -86 -191 2 -2 44 80 93 182 l89 185
107 0 108 0 0 -405 0 -405 -90 0 -90 0 0 268 c-1 244 -2 264 -16 233 -8 -19
-12 -36 -9 -39 3 -3 6 1 7 9 1 8 5 -96 8 -231 l5 -245 95 0 95 0 3 413 2 412
-115 0 -116 0 -90 -186z"/>
<path d="M2923 1509 c-28 -14 -127 -107 -288 -272 -134 -138 -243 -252 -241
-254 1 -2 116 112 254 252 159 162 264 261 286 270 65 27 142 16 173 -24 8
-11 12 -12 13 -3 0 7 -15 21 -32 32 -43 26 -111 26 -165 -1z"/>
<path d="M3122 1440 c0 -14 2 -19 5 -12 2 6 2 18 0 25 -3 6 -5 1 -5 -13z"/>
<path d="M4675 1421 c-82 -37 -126 -127 -124 -250 l2 -66 7 85 c8 94 13 108
48 162 62 95 222 106 306 22 40 -40 57 -86 66 -174 7 -73 7 -73 9 -19 4 157
-82 259 -219 259 -32 0 -72 -8 -95 -19z"/>
<path d="M3792 1363 l2 -68 3 63 4 63 95 -3 c52 -2 94 0 94 5 0 4 -45 7 -100
7 l-100 0 2 -67z"/>
<path d="M1368 1413 c12 -2 32 -2 45 0 12 2 2 4 -23 4 -25 0 -35 -2 -22 -4z"/>
<path d="M3593 1370 c0 -30 2 -43 4 -27 2 15 2 39 0 55 -2 15 -4 2 -4 -28z"/>
<path d="M1458 1403 c12 -2 30 -2 40 0 9 3 -1 5 -23 4 -22 0 -30 -2 -17 -4z"/>
<path d="M3053 1316 c-207 -305 -504 -645 -649 -743 -73 -50 -192 -110 -264
-135 -39 -13 -45 -17 -20 -13 46 7 203 83 280 135 84 57 246 215 345 335 142
174 383 501 374 509 -2 2 -32 -37 -66 -88z"/>
<path d="M1550 1390 c25 -8 97 -13 89 -6 -2 2 -29 6 -59 9 -36 4 -46 3 -30 -3z"/>
<path d="M3984 1180 c0 -124 2 -174 3 -112 2 61 2 163 0 225 -1 61 -3 11 -3
-113z"/>
<path d="M1680 1370 c25 -8 87 -13 79 -6 -2 2 -26 6 -54 9 -34 4 -42 3 -25 -3z"/>
<path d="M1783 1353 c9 -2 25 -2 35 0 9 3 1 5 -18 5 -19 0 -27 -2 -17 -5z"/>
<path d="M1853 1343 c9 -2 25 -2 35 0 9 3 1 5 -18 5 -19 0 -27 -2 -17 -5z"/>
<path d="M1147 1333 c18 -2 50 -2 70 0 21 2 7 4 -32 4 -38 0 -55 -2 -38 -4z"/>
<path d="M1288 1333 c17 -2 47 -2 65 0 17 2 3 4 -33 4 -36 0 -50 -2 -32 -4z"/>
<path d="M1923 1333 c9 -2 23 -2 30 0 6 3 -1 5 -18 5 -16 0 -22 -2 -12 -5z"/>
<path d="M1068 1323 c6 -2 18 -2 25 0 6 3 1 5 -13 5 -14 0 -19 -2 -12 -5z"/>
<path d="M1413 1323 c9 -2 23 -2 30 0 6 3 -1 5 -18 5 -16 0 -22 -2 -12 -5z"/>
<path d="M1983 1323 c9 -2 23 -2 30 0 6 3 -1 5 -18 5 -16 0 -22 -2 -12 -5z"/>
<path d="M5660 1324 c0 -6 7 -19 16 -30 14 -18 14 -18 3 6 -14 31 -19 36 -19
24z"/>
<path d="M1488 1313 c7 -3 16 -2 19 1 4 3 -2 6 -13 5 -11 0 -14 -3 -6 -6z"/>
<path d="M2048 1313 c6 -2 18 -2 25 0 6 3 1 5 -13 5 -14 0 -19 -2 -12 -5z"/>
<path d="M913 1271 c-40 -21 -94 -55 -120 -76 -61 -49 -453 -436 -453 -448 0
-10 460 -477 469 -477 3 0 -75 82 -173 182 -99 101 -204 209 -234 240 l-55 57
203 201 c228 226 287 275 392 325 40 19 66 35 58 35 -8 0 -48 -18 -87 -39z"/>
<path d="M1548 1303 c6 -2 18 -2 25 0 6 3 1 5 -13 5 -14 0 -19 -2 -12 -5z"/>
<path d="M2098 1303 c7 -3 16 -2 19 1 4 3 -2 6 -13 5 -11 0 -14 -3 -6 -6z"/>
<path d="M3583 1275 c0 -22 2 -30 4 -17 2 12 2 30 0 40 -3 9 -5 -1 -4 -23z"/>
<path d="M1623 1293 c9 -2 23 -2 30 0 6 3 -1 5 -18 5 -16 0 -22 -2 -12 -5z"/>
<path d="M2138 1293 c7 -3 16 -2 19 1 4 3 -2 6 -13 5 -11 0 -14 -3 -6 -6z"/>
<path d="M1740 1275 c41 -8 84 -14 95 -13 33 0 -46 16 -110 22 -59 5 -58 4 15
-9z"/>
<path d="M2178 1283 c7 -3 16 -2 19 1 4 3 -2 6 -13 5 -11 0 -14 -3 -6 -6z"/>
<path d="M2220 1270 c8 -5 20 -10 25 -10 6 0 3 5 -5 10 -8 5 -19 10 -25 10 -5
0 -3 -5 5 -10z"/>
<path d="M3782 1250 c0 -19 2 -27 5 -17 2 9 2 25 0 35 -3 9 -5 1 -5 -18z"/>
<path d="M5690 1261 c0 -5 5 -13 10 -16 6 -3 10 -2 10 4 0 5 -4 13 -10 16 -5
3 -10 2 -10 -4z"/>
<path d="M1868 1253 c6 -2 18 -2 25 0 6 3 1 5 -13 5 -14 0 -19 -2 -12 -5z"/>
<path d="M2275 1248 c11 -6 38 -25 60 -42 21 -17 36 -25 31 -18 -11 18 -86 72
-100 72 -6 0 -2 -6 9 -12z"/>
<path d="M1923 1243 c9 -2 25 -2 35 0 9 3 1 5 -18 5 -19 0 -27 -2 -17 -5z"/>
<path d="M4345 1170 c4 -76 30 -198 40 -188 2 2 -2 26 -11 53 -8 28 -19 88
-24 135 l-9 85 4 -85z"/>
<path d="M1993 1233 c9 -2 25 -2 35 0 9 3 1 5 -18 5 -19 0 -27 -2 -17 -5z"/>
<path d="M2058 1223 c6 -2 18 -2 25 0 6 3 1 5 -13 5 -14 0 -19 -2 -12 -5z"/>
<path d="M3571 1214 c-1 -18 -20 -89 -56 -209 -3 -11 3 -2 13 20 24 50 56 180
49 197 -3 7 -6 3 -6 -8z"/>
<path d="M5192 1200 c0 -19 2 -27 5 -17 2 9 2 25 0 35 -3 9 -5 1 -5 -18z"/>
<path d="M5520 1224 c0 -11 125 -282 135 -292 10 -11 -10 36 -74 173 -33 72
-61 125 -61 119z"/>
<path d="M5912 1185 c-30 -62 -27 -71 4 -12 14 27 24 51 22 53 -3 2 -14 -17
-26 -41z"/>
<path d="M2118 1213 c7 -3 16 -2 19 1 4 3 -2 6 -13 5 -11 0 -14 -3 -6 -6z"/>
<path d="M2200 1183 c44 -22 60 -38 77 -73 12 -25 22 -38 23 -30 1 42 -67 108
-130 124 -14 4 0 -5 30 -21z"/>
<path d="M3766 1169 c-4 -23 -5 -44 -2 -46 2 -2 7 14 11 37 4 23 5 43 2 46 -2
3 -7 -14 -11 -37z"/>
<path d="M5722 1198 c2 -5 8 -9 13 -9 5 0 11 4 13 9 1 5 -4 9 -13 9 -9 0 -14
-4 -13 -9z"/>
<path d="M5182 1110 c0 -19 2 -27 5 -17 2 9 2 25 0 35 -3 9 -5 1 -5 -18z"/>
<path d="M4967 1091 c-13 -63 -67 -118 -145 -148 l-37 -14 35 6 c19 3 53 18
74 33 43 29 90 108 84 139 -3 12 -6 6 -11 -16z"/>
<path d="M3751 1094 c0 -11 3 -14 6 -6 3 7 2 16 -1 19 -3 4 -6 -2 -5 -13z"/>
<path d="M4560 1092 c0 -44 74 -134 120 -147 16 -4 8 4 -21 23 -33 21 -54 45
-73 83 -14 29 -26 47 -26 41z"/>
<path d="M5826 1000 l-48 -99 -47 -4 -46 -4 50 1 50 1 48 99 c26 54 46 100 44
102 -2 2 -25 -41 -51 -96z"/>
<path d="M3732 1029 c-7 -24 -15 -51 -17 -59 -3 -8 4 4 16 28 11 24 19 50 17
59 -2 9 -9 -4 -16 -28z"/>
<path d="M5171 1060 c-2 -35 -54 -124 -100 -173 -28 -29 -73 -64 -101 -77 -27
-13 -48 -25 -46 -27 10 -10 107 50 150 92 48 46 112 164 103 187 -4 9 -6 8 -6
-2z"/>
<path d="M2272 1030 c-16 -36 -68 -69 -136 -87 l-51 -13 45 6 c74 9 170 78
158 114 -1 5 -9 -3 -16 -20z"/>
<path d="M2345 956 c-16 -13 -43 -30 -60 -39 -16 -9 -25 -16 -19 -17 12 0 101
57 110 71 8 14 2 11 -31 -15z"/>
<path d="M3497 966 c-3 -9 -22 -16 -44 -18 l-38 -3 -3 -157 -3 -158 106 0 105
0 0 70 0 70 230 0 229 0 3 -67 3 -68 104 0 c77 0 105 3 107 13 1 7 0 8 -3 2
-3 -6 -46 -10 -104 -10 l-99 0 0 70 0 70 -240 0 -240 0 0 -70 0 -70 -95 0 -95
0 0 150 0 150 34 0 c31 0 66 23 54 36 -3 3 -8 -2 -11 -10z"/>
<path d="M4390 965 c0 -4 16 -29 35 -56 72 -97 212 -161 347 -158 49 2 47 2
-22 9 -161 16 -249 62 -331 174 -16 21 -29 36 -29 31z"/>
<path d="M3773 943 c43 -2 110 -2 150 0 40 1 5 3 -78 3 -82 0 -115 -2 -72 -3z"/>
<path d="M1653 933 c9 -2 23 -2 30 0 6 3 -1 5 -18 5 -16 0 -22 -2 -12 -5z"/>
<path d="M4718 933 c7 -3 16 -2 19 1 4 3 -2 6 -13 5 -11 0 -14 -3 -6 -6z"/>
<path d="M1552 919 c-23 -9 -22 -30 1 -28 7 0 5 3 -3 7 -9 4 4 11 35 18 38 9
43 12 20 12 -16 1 -40 -3 -53 -9z"/>
<path d="M1838 923 c45 -2 119 -2 165 0 45 1 8 3 -83 3 -91 0 -128 -2 -82 -3z"/>
<path d="M1578 883 c7 -3 16 -2 19 1 4 3 -2 6 -13 5 -11 0 -14 -3 -6 -6z"/>
<path d="M2185 875 c-16 -8 -23 -14 -15 -14 8 0 26 6 40 14 32 18 15 18 -25 0z"/>
<path d="M1618 873 c6 -2 18 -2 25 0 6 3 1 5 -13 5 -14 0 -19 -2 -12 -5z"/>
<path d="M1673 863 c9 -2 25 -2 35 0 9 3 1 5 -18 5 -19 0 -27 -2 -17 -5z"/>
<path d="M1748 853 c12 -2 32 -2 45 0 12 2 2 4 -23 4 -25 0 -35 -2 -22 -4z"/>
<path d="M2128 853 c7 -3 16 -2 19 1 4 3 -2 6 -13 5 -11 0 -14 -3 -6 -6z"/>
<path d="M1863 843 c15 -2 39 -2 55 0 15 2 2 4 -28 4 -30 0 -43 -2 -27 -4z"/>
<path d="M2008 843 c18 -2 45 -2 60 0 15 2 0 4 -33 4 -33 0 -45 -2 -27 -4z"/>
<path d="M4855 770 c-27 -7 -28 -8 -5 -8 14 0 34 3 45 8 25 11 2 11 -40 0z"/>
<path d="M4282 720 c0 -14 2 -19 5 -12 2 6 2 18 0 25 -3 6 -5 1 -5 -13z"/>
<path d="M1213 463 c26 -2 67 -2 90 0 23 2 2 3 -48 3 -49 0 -68 -1 -42 -3z"/>
<path d="M1113 453 c9 -2 25 -2 35 0 9 3 1 5 -18 5 -19 0 -27 -2 -17 -5z"/>
<path d="M1378 453 c12 -2 30 -2 40 0 9 3 -1 5 -23 4 -22 0 -30 -2 -17 -4z"/>
<path d="M1045 435 c-25 -12 -26 -14 -5 -9 28 7 60 23 45 23 -5 0 -23 -6 -40
-14z"/>
<path d="M1463 443 c9 -2 25 -2 35 0 9 3 1 5 -18 5 -19 0 -27 -2 -17 -5z"/>
<path d="M1538 433 c12 -2 30 -2 40 0 9 3 -1 5 -23 4 -22 0 -30 -2 -17 -4z"/>
<path d="M1613 423 c9 -2 25 -2 35 0 9 3 1 5 -18 5 -19 0 -27 -2 -17 -5z"/>
<path d="M943 381 c-61 -49 -123 -114 -101 -106 9 4 24 18 33 31 9 14 43 45
77 69 33 25 56 45 50 45 -6 0 -32 -17 -59 -39z"/>
<path d="M1698 413 c12 -2 30 -2 40 0 9 3 -1 5 -23 4 -22 0 -30 -2 -17 -4z"/>
<path d="M2048 413 c6 -2 18 -2 25 0 6 3 1 5 -13 5 -14 0 -19 -2 -12 -5z"/>
<path d="M1788 403 c17 -2 47 -2 65 0 17 2 3 4 -33 4 -36 0 -50 -2 -32 -4z"/>
<path d="M1963 403 c15 -2 37 -2 50 0 12 2 0 4 -28 4 -27 0 -38 -2 -22 -4z"/>
</g>
</svg>
